PathFileType	4	(X/Y/Z)	C:\Users\WrightLab\Desktop\Jo\P5V45.trc
DataRate	CameraRate	NumFrames	NumMarkers	Units	OrigDataRate	OrigDataStartFrame	OrigNumFrames
100.00	100.00	       13	19	mm	100.00	316	       840
Frame#	Time	Headset_Front			Headset_Back			Headset_Left			Headset_Right			Left_Shoulder			Right_Shoulder			Sternum			C7			Left Elbow			Right Elbow			Left Wrist			Right Wrist			Left ASIS			Right ASIS			S2			Left Knee			Right Knee			Left Ankle			Right Ankle			
		X1	Y1	Z1	X2	Y2	Z2	X3	Y3	Z3	X4	Y4	Z4	X5	Y5	Z5	X6	Y6	Z6	X7	Y7	Z7	X8	Y8	Z8	X9	Y9	Z9	X10	Y10	Z10	X11	Y11	Z11	X12	Y12	Z12	X13	Y13	Z13	X14	Y14	Z14	X15	Y15	Z15	X16	Y16	Z16	X17	Y17	Z17	X18	Y18	Z18	X19	Y19	Z19	

316	3.150	-678.99567	1566.55981	-653.09644	-551.01233	1735.10303	-759.05981	-524.33844	1500.48755	-937.45148				-306.42953	1148.99890	-751.24237	-754.83716	1468.34119	-869.74463	-611.77148	1307.92468	-745.01245	-359.66800	1467.61206	-753.88519				-855.98334	1189.80823	-876.25983	-389.57397	921.29901	-679.66779	-837.34973	1043.69971	-685.14319	-511.90826	905.23657	-674.56421	-780.51294	954.30957	-802.42322	-509.86325	945.85760	-983.37720	-500.87634	478.54419	-684.25909	-770.45599	472.19843	-875.33429	-527.10333	67.51163	-835.44513				
317	3.160	-681.53949	1567.37195	-648.31647	-554.29370	1735.68848	-755.26453	-528.53156	1500.94458	-933.06647				-308.68655	1149.14612	-747.09485	-759.04425	1468.73779	-864.31641	-613.90247	1308.59583	-739.69208	-362.62750	1468.31799	-751.11102				-859.95453	1189.90552	-869.64862	-394.57629	924.26868	-675.39612	-841.60669	1045.12256	-677.90955	-513.31683	905.71594	-669.86017	-787.44983	956.12280	-795.70184	-514.62427	945.75500	-979.60077	-500.28995	479.01846	-679.10162	-784.85321	476.14233	-856.28833	-527.49438	68.09528	-834.96356				
318	3.170	-684.04077	1568.27771	-643.23010	-557.57330	1736.16907	-751.03070	-533.14191	1500.87390	-929.24640	-584.22198	1486.77307	-553.49292	-311.07132	1150.65479	-742.10962	-763.57654	1469.51721	-858.20233	-617.30121	1308.96155	-735.18579	-365.66550	1468.95068	-748.74945				-864.87292	1190.32690	-862.16089	-398.65356	925.04877	-670.16278	-844.60052	1045.35620	-670.31586	-514.55286	905.42963	-666.11688	-788.40759	954.94830	-787.71600	-519.35815	945.70367	-975.77734	-499.67831	479.36649	-674.58295	-797.79700	482.67169	-838.18121	-527.58228	68.08776	-834.95911				
319	3.180	-686.57080	1568.69507	-637.44501	-560.95068	1736.63538	-747.38989	-537.46332	1501.45935	-924.65619	-588.28271	1488.40442	-549.32074				-766.31311	1468.89722	-852.16614	-619.43610	1308.82178	-729.92725	-368.78250	1469.41968	-744.04852				-869.02686	1191.91968	-856.61945	-401.42395	927.20618	-661.40332	-848.07135	1046.30908	-663.34808	-515.50549	906.03033	-661.64935	-791.14209	954.34009	-779.78015	-524.02679	945.69006	-971.90332	-499.42584	479.44742	-669.57147	-810.45331	489.38568	-820.57959	-527.63135	68.08141	-834.95538				
320	3.190	-689.08002	1569.01978	-632.28290	-564.33191	1736.84998	-743.06531	-542.07056	1501.48633	-920.56573				-318.02661	1151.31421	-734.68903	-770.43335	1468.67065	-845.81989	-622.62579	1309.42493	-724.83325	-371.87961	1470.20264	-741.43396				-872.78748	1190.48999	-848.51404	-405.03589	929.92444	-654.77887	-850.37579	1046.01147	-655.55280	-516.95703	906.28326	-656.67651	-793.65106	955.22357	-771.45886	-528.73242	945.74158	-967.99506	-499.81549	478.91116	-664.67053	-820.59869	496.27243	-804.89630	-527.75562	68.26649	-834.20593				
321	3.200	-691.59961	1569.66882	-627.53748	-567.70099	1737.28979	-739.39142	-546.75696	1501.62305	-916.31494				-322.06677	1152.62366	-730.71130	-774.53003	1468.42188	-839.65918	-624.22009	1308.87451	-720.03882							-877.14105	1190.60437	-841.85992	-409.34851	931.26660	-650.54248	-854.08160	1046.69861	-648.83411	-517.80548	906.54425	-651.48743	-796.35651	954.11542	-763.06787	-533.37885	945.74927	-964.08624	-499.91672	478.25638	-660.27057	-830.26056	503.08145	-787.58173	-528.16949	68.71385	-834.29266				
322	3.210	-694.10620	1570.04480	-622.76971	-571.18591	1737.54065	-736.02344	-551.42529	1501.58679	-911.98944				-325.01257	1152.39697	-727.45630	-778.29053	1468.16492	-833.22809	-626.57733	1308.94019	-714.97559							-880.88776	1190.72375	-835.20288	-412.30716	933.56122	-643.99469	-857.52673	1047.02124	-640.85559	-517.97571	906.38025	-648.44043	-798.98718	953.39539	-755.38965	-538.01636	945.77667	-960.15594	-502.00485	477.36481	-656.72833	-838.33264	509.49844	-770.36896	-528.31219	68.65804	-834.26062				
323	3.220	-696.60828	1570.21680	-617.29681	-574.54535	1737.70215	-731.29108	-556.16010	1501.53015	-907.99084				-324.99777	1154.19141	-725.03162	-781.89514	1468.04736	-826.79810	-629.04993	1309.57092	-710.40765	-381.12619	1471.84265	-732.54535				-885.65228	1190.37231	-827.12726	-415.84985	936.21277	-639.97089	-861.31140	1047.57080	-633.71814	-519.29956	906.72650	-645.31781	-800.38959	953.13074	-747.76111	-542.66040	945.69281	-956.28479	-503.64536	477.24176	-653.39154	-846.03918	516.54175	-753.92230	-528.42969	68.62794	-834.24323				
324	3.230	-699.08209	1570.70203	-611.90125	-578.02917	1738.08545	-727.44855	-560.83411	1501.69104	-903.09857				-329.86871	1155.68896	-721.56293	-786.15607	1467.58228	-820.42761	-631.31396	1308.74902	-703.39349							-889.10046	1190.24023	-821.06744	-420.67740	936.81482	-638.15094	-864.00531	1048.27930	-626.45752	-520.63245	906.83557	-641.49908	-802.90204	952.01819	-740.49408	-547.26215	945.60052	-952.39819	-506.24838	476.81870	-649.65881	-851.87036	522.94489	-736.65808	-528.74780	68.80355	-834.71173				
325	3.240	-701.58325	1571.04688	-606.65100	-581.47467	1738.33740	-723.34106	-565.66577	1501.52075	-899.00354							-790.17029	1467.26489	-814.30920	-633.78021	1309.17017	-699.66937							-893.38098	1189.20093	-812.43689	-423.65738	939.35431	-629.18579	-867.29633	1048.81714	-618.53931	-521.23535	907.30475	-636.87354	-804.69598	952.38135	-733.09210	-552.02222	945.47003	-948.57367	-509.72577	476.42722	-646.58142	-857.21088	528.97272	-720.17334	-529.23511	69.28699	-834.79517				
326	3.250	-704.01166	1571.17603	-600.94623	-584.99500	1738.46545	-718.87720	-570.41876	1501.35266	-894.28461				-335.52765	1156.10901	-715.77820	-794.02325	1467.10571	-807.49225	-636.59082	1309.05554	-693.67743							-896.94263	1189.10791	-805.61176	-426.15625	940.85303	-623.56482	-869.22845	1049.31689	-611.04724	-521.01019	907.66010	-634.67926	-805.50537	950.98376	-724.61560	-556.92633	945.35382	-944.77582	-511.62866	476.53912	-644.13770	-860.75079	534.81555	-705.23132	-529.37079	69.24815	-834.77277				
327	3.260	-706.46027	1571.58057	-595.95538	-588.50067	1738.68762	-714.50000	-575.24731	1501.20740	-889.44904				-338.29578	1156.77478	-712.04681	-798.26178	1466.24341	-800.49103	-638.29657	1309.29700	-689.04248							-900.85712	1188.88293	-798.47314	-428.60751	942.85077	-618.36047	-871.95654	1049.34192	-602.45636	-521.51501	908.47711	-629.47565	-808.05103	951.50452	-718.51764	-562.13239	945.18689	-941.08832	-513.09857	476.53763	-642.54260	-863.97577	540.33990	-691.27905	-530.20239	70.31792	-833.62842				
328	3.270	-708.92365	1571.64954	-590.25488	-592.10065	1738.68298	-710.69336	-579.96844	1501.19910	-884.55243							-801.98877	1466.21765	-793.98804	-641.29755	1308.65869	-684.38660							-904.58313	1188.26379	-789.94971	-432.69626	943.34094	-614.34448	-874.52551	1049.83997	-596.14569	-524.77319	905.93018	-630.58990	-808.23010	949.89526	-710.97528	-567.54840	945.06384	-937.42712	-514.16791	476.83105	-640.15515	-866.41766	545.16730	-677.65277	-530.36920	70.27057	-834.50659				
